<?xml version="1.0" standalone="no"?>
<!DOCTYPE svg PUBLIC "-//W3C//DTD SVG 20010904//EN"
 "http://www.w3.org/TR/2001/REC-SVG-20010904/DTD/svg10.dtd">
<svg version="1.0" xmlns="http://www.w3.org/2000/svg"
 width="260.000000pt" height="260.000000pt" viewBox="0 0 260.000000 260.000000"
 preserveAspectRatio="xMidYMid meet">
<metadata>
Created by potrace 1.11, written by Peter Selinger 2001-2013
</metadata>
<g transform="translate(0.000000,260.000000) scale(0.100000,-0.100000)"
fill="#000000" stroke="none">
<path d="M0 1300 l0 -1300 1300 0 1300 0 0 1300 0 1300 -1300 0 -1300 0 0
-1300z m798 678 c70 -188 505 -1324 509 -1331 3 -4 -40 -6 -94 -5 l-98 3 -65
178 -65 177 -290 -2 -290 -3 -64 -177 -64 -178 -94 0 c-51 0 -93 3 -93 7 0 4
118 316 262 695 l262 688 82 0 83 0 19 -52z m1364 24 c139 -46 221 -151 234
-298 12 -128 -41 -233 -152 -304 l-42 -26 47 -22 c57 -26 124 -91 152 -148 44
-93 44 -239 -1 -341 -44 -99 -161 -186 -288 -212 -31 -7 -168 -11 -337 -11
l-285 0 0 696 0 695 303 -3 c280 -4 307 -5 369 -26z"/>
<path d="M579 1473 l-115 -318 113 -3 c61 -1 166 -1 232 0 l119 3 -113 313
c-62 172 -115 315 -117 318 -3 2 -56 -139 -119 -313z"/>
<path d="M1680 1660 l0 -222 178 4 c170 3 179 4 233 31 78 38 112 88 117 173
7 112 -33 179 -128 214 -22 8 -105 15 -217 18 l-183 4 0 -222z"/>
<path d="M1680 1039 l0 -251 193 4 c222 5 253 13 316 84 83 95 80 265 -6 349
-56 55 -107 65 -320 65 l-183 0 0 -251z"/>
</g>
</svg>
